<svg width="165" height="79" viewBox="0 0 165 79" fill="none" xmlns="http://www.w3.org/2000/svg">
<g filter="url(#filter0_dii)">
<path d="M31.648 19.52H20.512V50H15.88V19.52H4.72V15.608H31.648V19.52Z" fill="white"/>
<path d="M34.164 61.304C35.588 61.304 36.86 61.064 37.98 60.584C39.1 60.104 40.044 59.432 40.812 58.568C41.596 57.704 42.188 56.672 42.588 55.472C43.004 54.272 43.212 52.952 43.212 51.512V30.608H47.844V51.512C47.844 53.496 47.524 55.336 46.884 57.032C46.26 58.728 45.356 60.2 44.172 61.448C43.004 62.68 41.572 63.648 39.876 64.352C38.18 65.056 36.276 65.408 34.164 65.408C32.052 65.408 30.148 65.056 28.452 64.352C26.756 63.648 25.316 62.68 24.132 61.448C22.948 60.2 22.036 58.728 21.396 57.032C20.772 55.336 20.46 53.496 20.46 51.512V30.608H25.092V51.488C25.092 52.928 25.292 54.248 25.692 55.448C26.108 56.648 26.7 57.68 27.468 58.544C28.252 59.408 29.204 60.088 30.324 60.584C31.46 61.064 32.74 61.304 34.164 61.304Z" fill="#37C0A6"/>
<path d="M57.42 30.264C58.764 30.264 59.948 30.104 60.972 29.784C62.012 29.448 62.876 28.984 63.564 28.392C64.268 27.784 64.796 27.064 65.148 26.232C65.5 25.4 65.676 24.48 65.676 23.472C65.676 21.424 65.004 19.88 63.66 18.84C62.316 17.8 60.3 17.28 57.612 17.28H52.524V30.264H57.42ZM73.308 48H69.18C68.332 48 67.708 47.672 67.308 47.016L58.38 34.728C58.108 34.344 57.812 34.072 57.492 33.912C57.188 33.736 56.708 33.648 56.052 33.648H52.524V48H47.892V13.608H57.612C59.788 13.608 61.668 13.832 63.252 14.28C64.836 14.712 66.14 15.344 67.164 16.176C68.204 17.008 68.972 18.016 69.468 19.2C69.964 20.368 70.212 21.68 70.212 23.136C70.212 24.352 70.02 25.488 69.636 26.544C69.252 27.6 68.692 28.552 67.956 29.4C67.236 30.232 66.348 30.944 65.292 31.536C64.252 32.128 63.068 32.576 61.74 32.88C62.332 33.216 62.844 33.704 63.276 34.344L73.308 48Z" fill="#8FE1A1"/>
<path d="M77.048 48H72.392V13.608H77.048V48Z" fill="#367BC2"/>
<path d="M94.726 29.6724C94.5406 29.8821 94.3498 30.0339 94.1534 30.1277C93.9757 30.2086 93.7688 30.2272 93.5328 30.1835C93.2654 30.1339 92.9755 29.9419 92.6633 29.6074C92.351 29.2729 91.9487 28.8973 91.4564 28.4806C90.9827 28.0511 90.3853 27.6312 89.664 27.2209C88.9584 26.8134 88.0628 26.5092 86.9773 26.308C85.9547 26.1184 85.0239 26.0924 84.1848 26.2298C83.3644 26.3543 82.643 26.603 82.0206 26.9759C81.414 27.3516 80.9172 27.8372 80.5302 28.4326C80.1461 29.0124 79.8855 29.6719 79.7485 30.4113C79.5736 31.3553 79.6559 32.1841 79.9955 32.898C80.3537 33.599 80.8696 34.2397 81.5431 34.8202C82.2323 35.4036 83.0262 35.9494 83.9246 36.4576C84.8417 36.953 85.7715 37.4671 86.7143 37.9998C87.6727 38.5354 88.5909 39.1124 89.4689 39.7308C90.3656 40.3363 91.1303 41.0395 91.7629 41.8402C92.4114 42.6438 92.8747 43.5677 93.1531 44.6119C93.4472 45.6591 93.4645 46.8827 93.205 48.2828C92.9309 49.7617 92.4212 51.1073 91.6757 52.3198C90.9332 53.5165 89.9853 54.5043 88.8321 55.2832C87.6946 56.065 86.3668 56.6 84.8489 56.8882C83.3467 57.1793 81.6988 57.1586 79.9054 56.8262C77.7029 56.418 75.7778 55.6544 74.1301 54.5354C72.4854 53.4007 71.1512 52.0388 70.1277 50.4496L71.8516 48.5235C72.0095 48.3738 72.1852 48.2599 72.3787 48.1819C72.5908 48.091 72.807 48.066 73.0272 48.1068C73.2317 48.1447 73.4438 48.2735 73.6634 48.4932C73.9017 48.7001 74.1627 48.96 74.4465 49.273C74.7302 49.5859 75.0567 49.9312 75.4261 50.3088C75.7955 50.6865 76.2243 51.0507 76.7125 51.4016C77.2165 51.7553 77.7985 52.0829 78.4587 52.3842C79.1217 52.6698 79.8859 52.8928 80.7511 53.0532C81.8366 53.2544 82.8319 53.2842 83.7368 53.1428C84.6417 53.0013 85.4348 52.7171 86.116 52.2901C86.8159 51.8503 87.3931 51.2819 87.8477 50.5851C88.3023 49.8883 88.6157 49.0758 88.7877 48.1476C88.9772 47.125 88.8958 46.2475 88.5433 45.515C88.2096 44.7697 87.7059 44.1068 87.0324 43.5263C86.359 42.9459 85.5622 42.4158 84.6422 41.9361C83.7251 41.4407 82.7923 40.9424 81.8438 40.4411C80.8982 39.9241 79.977 39.3629 79.0804 38.7573C78.1837 38.1518 77.4205 37.4408 76.7907 36.6244C76.161 35.8079 75.7034 34.8525 75.4181 33.7582C75.1514 32.6511 75.1565 31.3502 75.4335 29.8557C75.6551 28.66 76.0975 27.546 76.7608 26.5136C77.4398 25.4841 78.2999 24.6183 79.3413 23.9164C80.3984 23.2173 81.6201 22.7277 83.0063 22.4477C84.4083 22.1705 85.951 22.1879 87.6343 22.4999C89.5221 22.8498 91.1815 23.4665 92.6125 24.3501C94.0592 25.2366 95.2675 26.3555 96.2375 27.7069L94.726 29.6724Z" fill="#F1F1F1"/>
<path d="M129.176 23.608V58H125.096V32.728C125.096 32.392 125.104 32.032 125.12 31.648C125.152 31.264 125.184 30.872 125.216 30.472L113.408 51.976C113.04 52.696 112.48 53.056 111.728 53.056H111.056C110.304 53.056 109.744 52.696 109.376 51.976L97.328 30.376C97.424 31.224 97.472 32.008 97.472 32.728V58H93.392V23.608H96.824C97.24 23.608 97.56 23.648 97.784 23.728C98.008 23.808 98.224 24.032 98.432 24.4L110.312 45.568C110.504 45.952 110.688 46.352 110.864 46.768C111.056 47.184 111.232 47.608 111.392 48.04C111.552 47.608 111.72 47.184 111.896 46.768C112.072 46.336 112.264 45.928 112.472 45.544L124.136 24.4C124.328 24.032 124.536 23.808 124.76 23.728C125 23.648 125.328 23.608 125.744 23.608H129.176Z" fill="#367BC2"/>
<path d="M160.168 36.816C160.168 39.392 159.76 41.76 158.944 43.92C158.128 46.064 156.976 47.912 155.488 49.464C154 51.016 152.208 52.224 150.112 53.088C148.032 53.936 145.728 54.36 143.2 54.36C140.672 54.36 138.368 53.936 136.288 53.088C134.208 52.224 132.424 51.016 130.936 49.464C129.448 47.912 128.296 46.064 127.48 43.92C126.664 41.76 126.256 39.392 126.256 36.816C126.256 34.24 126.664 31.88 127.48 29.736C128.296 27.576 129.448 25.72 130.936 24.168C132.424 22.6 134.208 21.384 136.288 20.52C138.368 19.656 140.672 19.224 143.2 19.224C145.728 19.224 148.032 19.656 150.112 20.52C152.208 21.384 154 22.6 155.488 24.168C156.976 25.72 158.128 27.576 158.944 29.736C159.76 31.88 160.168 34.24 160.168 36.816ZM155.392 36.816C155.392 34.704 155.104 32.808 154.528 31.128C153.952 29.448 153.136 28.032 152.08 26.88C151.024 25.712 149.744 24.816 148.24 24.192C146.736 23.568 145.056 23.256 143.2 23.256C141.36 23.256 139.688 23.568 138.184 24.192C136.68 24.816 135.392 25.712 134.32 26.88C133.264 28.032 132.448 29.448 131.872 31.128C131.296 32.808 131.008 34.704 131.008 36.816C131.008 38.928 131.296 40.824 131.872 42.504C132.448 44.168 133.264 45.584 134.32 46.752C135.392 47.904 136.68 48.792 138.184 49.416C139.688 50.024 141.36 50.328 143.2 50.328C145.056 50.328 146.736 50.024 148.24 49.416C149.744 48.792 151.024 47.904 152.08 46.752C153.136 45.584 153.952 44.168 154.528 42.504C155.104 40.824 155.392 38.928 155.392 36.816Z" fill="#37C0A6"/>
<path d="M61.824 54.76H56.256V70H53.94V54.76H48.36V52.804H61.824V54.76ZM67.7175 64.528C66.7335 64.56 65.8935 64.64 65.1975 64.768C64.5095 64.888 63.9455 65.048 63.5055 65.248C63.0735 65.448 62.7575 65.684 62.5575 65.956C62.3655 66.228 62.2695 66.532 62.2695 66.868C62.2695 67.188 62.3215 67.464 62.4255 67.696C62.5295 67.928 62.6695 68.12 62.8455 68.272C63.0295 68.416 63.2415 68.524 63.4815 68.596C63.7295 68.66 63.9935 68.692 64.2735 68.692C64.6495 68.692 64.9935 68.656 65.3055 68.584C65.6175 68.504 65.9095 68.392 66.1815 68.248C66.4615 68.104 66.7255 67.932 66.9735 67.732C67.2295 67.532 67.4775 67.304 67.7175 67.048V64.528ZM60.8175 59.56C61.4895 58.912 62.2135 58.428 62.9895 58.108C63.7655 57.788 64.6255 57.628 65.5695 57.628C66.2495 57.628 66.8535 57.74 67.3815 57.964C67.9095 58.188 68.3535 58.5 68.7135 58.9C69.0735 59.3 69.3455 59.784 69.5295 60.352C69.7135 60.92 69.8055 61.544 69.8055 62.224V70H68.8575C68.6495 70 68.4895 69.968 68.3775 69.904C68.2655 69.832 68.1775 69.696 68.1135 69.496L67.8735 68.344C67.5535 68.64 67.2415 68.904 66.9375 69.136C66.6335 69.36 66.3135 69.552 65.9775 69.712C65.6415 69.864 65.2815 69.98 64.8975 70.06C64.5215 70.148 64.1015 70.192 63.6375 70.192C63.1655 70.192 62.7215 70.128 62.3055 70C61.8895 69.864 61.5255 69.664 61.2135 69.4C60.9095 69.136 60.6655 68.804 60.4815 68.404C60.3055 67.996 60.2175 67.516 60.2175 66.964C60.2175 66.484 60.3495 66.024 60.6135 65.584C60.8775 65.136 61.3055 64.74 61.8975 64.396C62.4895 64.052 63.2615 63.772 64.2135 63.556C65.1655 63.332 66.3335 63.204 67.7175 63.172V62.224C67.7175 61.28 67.5135 60.568 67.1055 60.088C66.6975 59.6 66.1015 59.356 65.3175 59.356C64.7895 59.356 64.3455 59.424 63.9855 59.56C63.6335 59.688 63.3255 59.836 63.0615 60.004C62.8055 60.164 62.5815 60.312 62.3895 60.448C62.2055 60.576 62.0215 60.64 61.8375 60.64C61.6935 60.64 61.5695 60.604 61.4655 60.532C61.3615 60.452 61.2735 60.356 61.2015 60.244L60.8175 59.56ZM81.5192 60.004C81.4552 60.092 81.3912 60.16 81.3272 60.208C81.2632 60.256 81.1752 60.28 81.0632 60.28C80.9432 60.28 80.8112 60.232 80.6672 60.136C80.5232 60.032 80.3432 59.92 80.1272 59.8C79.9192 59.68 79.6592 59.572 79.3472 59.476C79.0432 59.372 78.6672 59.32 78.2192 59.32C77.6192 59.32 77.0912 59.428 76.6352 59.644C76.1792 59.852 75.7952 60.156 75.4832 60.556C75.1792 60.956 74.9472 61.44 74.7872 62.008C74.6352 62.576 74.5592 63.212 74.5592 63.916C74.5592 64.652 74.6432 65.308 74.8112 65.884C74.9792 66.452 75.2152 66.932 75.5192 67.324C75.8312 67.708 76.2032 68.004 76.6352 68.212C77.0752 68.412 77.5672 68.512 78.1112 68.512C78.6312 68.512 79.0592 68.452 79.3952 68.332C79.7312 68.204 80.0072 68.064 80.2232 67.912C80.4472 67.76 80.6312 67.624 80.7752 67.504C80.9272 67.376 81.0752 67.312 81.2192 67.312C81.3952 67.312 81.5312 67.38 81.6272 67.516L82.2272 68.296C81.9632 68.624 81.6632 68.904 81.3272 69.136C80.9912 69.368 80.6272 69.564 80.2352 69.724C79.8512 69.876 79.4472 69.988 79.0232 70.06C78.5992 70.132 78.1672 70.168 77.7272 70.168C76.9672 70.168 76.2592 70.028 75.6032 69.748C74.9552 69.468 74.3912 69.064 73.9112 68.536C73.4312 68 73.0552 67.344 72.7832 66.568C72.5112 65.792 72.3752 64.908 72.3752 63.916C72.3752 63.012 72.4992 62.176 72.7472 61.408C73.0032 60.64 73.3712 59.98 73.8512 59.428C74.3392 58.868 74.9352 58.432 75.6392 58.12C76.3512 57.808 77.1672 57.652 78.0872 57.652C78.9432 57.652 79.6952 57.792 80.3432 58.072C80.9992 58.344 81.5792 58.732 82.0832 59.236L81.5192 60.004ZM86.6681 59.464C87.1881 58.912 87.7641 58.472 88.3961 58.144C89.0281 57.816 89.7561 57.652 90.5801 57.652C91.2441 57.652 91.8281 57.764 92.3321 57.988C92.8441 58.204 93.2681 58.516 93.6041 58.924C93.9481 59.324 94.2081 59.808 94.3841 60.376C94.5601 60.944 94.6481 61.572 94.6481 62.26V70H92.5001V62.26C92.5001 61.34 92.2881 60.628 91.8641 60.124C91.4481 59.612 90.8121 59.356 89.9561 59.356C89.3241 59.356 88.7321 59.508 88.1801 59.812C87.6361 60.116 87.1321 60.528 86.6681 61.048V70H84.5201V52.324H86.6681V59.464ZM100.159 57.844V70H98.0229V57.844H100.159ZM100.615 54.028C100.615 54.236 100.571 54.432 100.483 54.616C100.403 54.792 100.291 54.952 100.147 55.096C100.011 55.232 99.8469 55.34 99.6549 55.42C99.4709 55.5 99.2749 55.54 99.0669 55.54C98.8589 55.54 98.6629 55.5 98.4789 55.42C98.3029 55.34 98.1469 55.232 98.0109 55.096C97.8749 54.952 97.7669 54.792 97.6869 54.616C97.6069 54.432 97.5669 54.236 97.5669 54.028C97.5669 53.82 97.6069 53.624 97.6869 53.44C97.7669 53.248 97.8749 53.084 98.0109 52.948C98.1469 52.804 98.3029 52.692 98.4789 52.612C98.6629 52.532 98.8589 52.492 99.0669 52.492C99.2749 52.492 99.4709 52.532 99.6549 52.612C99.8469 52.692 100.011 52.804 100.147 52.948C100.291 53.084 100.403 53.248 100.483 53.44C100.571 53.624 100.615 53.82 100.615 54.028ZM105.697 60.28C106.081 59.448 106.553 58.8 107.113 58.336C107.673 57.864 108.357 57.628 109.165 57.628C109.421 57.628 109.665 57.656 109.897 57.712C110.137 57.768 110.349 57.856 110.533 57.976L110.377 59.572C110.329 59.772 110.209 59.872 110.017 59.872C109.905 59.872 109.741 59.848 109.525 59.8C109.309 59.752 109.065 59.728 108.793 59.728C108.409 59.728 108.065 59.784 107.761 59.896C107.465 60.008 107.197 60.176 106.957 60.4C106.725 60.616 106.513 60.888 106.321 61.216C106.137 61.536 105.969 61.904 105.817 62.32V70H103.669V57.844H104.893C105.125 57.844 105.285 57.888 105.373 57.976C105.461 58.064 105.521 58.216 105.553 58.432L105.697 60.28ZM118.811 64.528C117.827 64.56 116.987 64.64 116.291 64.768C115.603 64.888 115.039 65.048 114.599 65.248C114.167 65.448 113.851 65.684 113.651 65.956C113.459 66.228 113.363 66.532 113.363 66.868C113.363 67.188 113.415 67.464 113.519 67.696C113.623 67.928 113.763 68.12 113.939 68.272C114.123 68.416 114.335 68.524 114.575 68.596C114.823 68.66 115.087 68.692 115.367 68.692C115.743 68.692 116.087 68.656 116.399 68.584C116.711 68.504 117.003 68.392 117.275 68.248C117.555 68.104 117.819 67.932 118.067 67.732C118.323 67.532 118.571 67.304 118.811 67.048V64.528ZM111.911 59.56C112.583 58.912 113.307 58.428 114.083 58.108C114.859 57.788 115.719 57.628 116.663 57.628C117.343 57.628 117.947 57.74 118.475 57.964C119.003 58.188 119.447 58.5 119.807 58.9C120.167 59.3 120.439 59.784 120.623 60.352C120.807 60.92 120.899 61.544 120.899 62.224V70H119.951C119.743 70 119.583 69.968 119.471 69.904C119.359 69.832 119.271 69.696 119.207 69.496L118.967 68.344C118.647 68.64 118.335 68.904 118.031 69.136C117.727 69.36 117.407 69.552 117.071 69.712C116.735 69.864 116.375 69.98 115.991 70.06C115.615 70.148 115.195 70.192 114.731 70.192C114.259 70.192 113.815 70.128 113.399 70C112.983 69.864 112.619 69.664 112.307 69.4C112.003 69.136 111.759 68.804 111.575 68.404C111.399 67.996 111.311 67.516 111.311 66.964C111.311 66.484 111.443 66.024 111.707 65.584C111.971 65.136 112.399 64.74 112.991 64.396C113.583 64.052 114.355 63.772 115.307 63.556C116.259 63.332 117.427 63.204 118.811 63.172V62.224C118.811 61.28 118.607 60.568 118.199 60.088C117.791 59.6 117.195 59.356 116.411 59.356C115.883 59.356 115.439 59.424 115.079 59.56C114.727 59.688 114.419 59.836 114.155 60.004C113.899 60.164 113.675 60.312 113.483 60.448C113.299 60.576 113.115 60.64 112.931 60.64C112.787 60.64 112.663 60.604 112.559 60.532C112.455 60.452 112.367 60.356 112.295 60.244L111.911 59.56Z" fill="#534582"/>
</g>
<defs>
<filter id="filter0_dii" x="0.719971" y="13.608" width="163.448" height="64.584" filterUnits="userSpaceOnUse" color-interpolation-filters="sRGB">
<feFlood flood-opacity="0" result="BackgroundImageFix"/>
<feColorMatrix in="SourceAlpha" type="matrix" values="0 0 0 0 0 0 0 0 0 0 0 0 0 0 0 0 0 0 127 0"/>
<feOffset dy="4"/>
<feGaussianBlur stdDeviation="2"/>
<feColorMatrix type="matrix" values="0 0 0 0 0 0 0 0 0 0 0 0 0 0 0 0 0 0 0.25 0"/>
<feBlend mode="normal" in2="BackgroundImageFix" result="effect1_dropShadow"/>
<feBlend mode="normal" in="SourceGraphic" in2="effect1_dropShadow" result="shape"/>
<feColorMatrix in="SourceAlpha" type="matrix" values="0 0 0 0 0 0 0 0 0 0 0 0 0 0 0 0 0 0 127 0" result="hardAlpha"/>
<feOffset dy="4"/>
<feGaussianBlur stdDeviation="2"/>
<feComposite in2="hardAlpha" operator="arithmetic" k2="-1" k3="1"/>
<feColorMatrix type="matrix" values="0 0 0 0 1 0 0 0 0 1 0 0 0 0 1 0 0 0 1 0"/>
<feBlend mode="normal" in2="shape" result="effect2_innerShadow"/>
<feColorMatrix in="SourceAlpha" type="matrix" values="0 0 0 0 0 0 0 0 0 0 0 0 0 0 0 0 0 0 127 0" result="hardAlpha"/>
<feOffset dy="4"/>
<feGaussianBlur stdDeviation="2"/>
<feComposite in2="hardAlpha" operator="arithmetic" k2="-1" k3="1"/>
<feColorMatrix type="matrix" values="0 0 0 0 0 0 0 0 0 0 0 0 0 0 0 0 0 0 0.25 0"/>
<feBlend mode="normal" in2="effect2_innerShadow" result="effect3_innerShadow"/>
</filter>
</defs>
</svg>
